<svg xmlns="http://www.w3.org/2000/svg" width="30" height="30" viewBox="0 0 30 30">
  <g id="icn-twitter" transform="translate(-163 -415)">
    <rect id="Rectangle_327" data-name="Rectangle 327" width="30" height="30" rx="8" transform="translate(163 415)" fill="#55acee"/>
    <path id="_x30_4.Twitter" d="M27.547,19.2a7.422,7.422,0,0,1-2.074.574,3.529,3.529,0,0,0,1.588-2.007,7.619,7.619,0,0,1-2.294.882A3.621,3.621,0,0,0,18.5,21.118a3.308,3.308,0,0,0,.088.816,10.183,10.183,0,0,1-7.434-3.772,3.63,3.63,0,0,0,1.1,4.831,3.474,3.474,0,0,1-1.632-.441,3.656,3.656,0,0,0,2.89,3.6,3.971,3.971,0,0,1-1.632.066,3.633,3.633,0,0,0,3.375,2.515,7.289,7.289,0,0,1-5.36,1.5,10.28,10.28,0,0,0,15.838-8.647,3.258,3.258,0,0,0-.022-.463A7.18,7.18,0,0,0,27.547,19.2Z" transform="translate(159.1 405.5)" fill="#fff"/>
    <rect id="Rectangle_454" data-name="Rectangle 454" width="30" height="30" transform="translate(163 415)" fill="none"/>
  </g>
</svg>
